<svg xmlns="http://www.w3.org/2000/svg" viewBox="0 0 512 512">
  <!-- Background -->
  <rect width="512" height="512" rx="96" fill="#1E8B4C"/>
  <!-- Leaf / sprout -->
  <g fill="white">
    <!-- Stem -->
    <rect x="244" y="280" width="24" height="140" rx="12"/>
    <!-- Left leaf -->
    <path d="M256 300 C220 260 160 240 140 200 C160 200 220 220 256 260 Z" opacity="0.95"/>
    <!-- Right leaf -->
    <path d="M256 280 C290 240 350 220 370 180 C350 180 290 200 256 240 Z" opacity="0.95"/>
    <!-- Main leaf (top) -->
    <path d="M256 160 C290 120 350 110 370 80 C340 75 280 95 256 140 C232 95 172 75 142 80 C162 110 222 120 256 160 Z"/>
  </g>
</svg>
